<svg xmlns="http://www.w3.org/2000/svg" viewBox="0 0 720 820" role="img" aria-label="Bradley Castle profile image">
  <defs>
    <radialGradient id="bg" cx="50%" cy="20%" r="80%">
      <stop offset="0" stop-color="#ffffff"/>
      <stop offset="0.5" stop-color="#edf2f8"/>
      <stop offset="1" stop-color="#cbd8ea"/>
    </radialGradient>
    <linearGradient id="jacket" x1="0" x2="1" y1="0" y2="1">
      <stop offset="0" stop-color="#0d3f88"/>
      <stop offset="1" stop-color="#071d49"/>
    </linearGradient>
    <filter id="shadow" x="-20%" y="-20%" width="140%" height="140%">
      <feDropShadow dx="0" dy="26" stdDeviation="24" flood-color="#071d49" flood-opacity="0.24"/>
    </filter>
  </defs>
  <rect width="720" height="820" fill="url(#bg)"/>
  <circle cx="360" cy="238" r="126" fill="#f0c7a5" filter="url(#shadow)"/>
  <path d="M232 248c8-102 64-166 135-166 81 0 128 55 139 151-55-24-156-34-274 15z" fill="#1f2937"/>
  <path d="M224 500c40-82 105-123 136-123s97 41 136 123l55 212H169z" fill="url(#jacket)" filter="url(#shadow)"/>
  <path d="M289 391l71 86 71-86v156H289z" fill="#ffffff"/>
  <path d="M280 480h160l-80 138z" fill="#d71920"/>
  <circle cx="360" cy="615" r="74" fill="#ffffff"/>
  <circle cx="360" cy="615" r="58" fill="#d71920"/>
  <circle cx="360" cy="615" r="43" fill="#071d49"/>
  <text x="360" y="632" text-anchor="middle" fill="#ffffff" font-family="Arial Black, Arial, sans-serif" font-size="44">BC</text>
  <text x="360" y="760" text-anchor="middle" fill="#071d49" font-family="Arial Black, Arial, sans-serif" font-size="42">Bradley Castle</text>
  <text x="360" y="798" text-anchor="middle" fill="#5c6472" font-family="Arial, sans-serif" font-size="24" font-weight="700">Patriot Jiu Jitsu</text>
</svg>
